<svg width="104" height="30" viewBox="0 0 104 30" fill="none" xmlns="http://www.w3.org/2000/svg">
<g clip-path="url(#clip0_1_16)">
<path d="M38.4556 20.812V10.534C38.4556 9.31 39.0496 8.806 40.3096 8.806C40.9216 8.806 41.4616 9.04 41.7856 9.58L46.9516 17.914H46.9876V10.228C46.9876 9.274 47.5276 8.806 48.4096 8.806C49.2916 8.806 49.8316 9.274 49.8316 10.228V20.398C49.8316 21.568 49.3276 22.234 48.0856 22.234C47.1496 22.234 46.8436 22.036 46.4656 21.442L41.3356 13.342H41.2996V20.812C41.2996 21.766 40.7596 22.234 39.8776 22.234C38.9956 22.234 38.4556 21.766 38.4556 20.812ZM54.4274 17.284C54.4274 18.886 55.0934 20.29 56.6594 20.29C58.2254 20.29 58.8914 18.886 58.8914 17.284C58.8914 15.574 58.1894 14.296 56.6594 14.296C55.1294 14.296 54.4274 15.574 54.4274 17.284ZM51.7994 17.284C51.7994 14.512 53.4914 12.352 56.6594 12.352C59.8274 12.352 61.5194 14.512 61.5194 17.284C61.5194 19.912 60.2414 22.234 56.6594 22.234C53.0774 22.234 51.7994 19.912 51.7994 17.284ZM63.9009 19.894V14.314H63.4509C62.7129 14.314 62.4069 14.026 62.4069 13.45C62.4069 12.874 62.7129 12.586 63.4509 12.586H63.9009V10.984C63.9009 10.12 64.4229 9.67 65.2149 9.67C66.0069 9.67 66.5289 10.12 66.5289 10.984V12.586H67.3209C68.0949 12.586 68.5089 12.82 68.5089 13.45C68.5089 14.08 68.0949 14.314 67.3209 14.314H66.5289V19.57C66.5289 19.966 66.7449 20.182 67.2129 20.182H67.5909C68.1669 20.182 68.5089 20.506 68.5089 21.064C68.5089 21.82 67.8609 22.234 66.6009 22.234C64.6929 22.234 63.9009 21.442 63.9009 19.894ZM78.051 17.788H72.111C72.111 19.174 73.011 20.182 74.541 20.182C76.521 20.182 76.521 18.886 77.583 18.886C78.213 18.886 78.663 19.426 78.663 19.912C78.663 21.496 76.125 22.234 74.541 22.234C70.869 22.234 69.483 19.75 69.483 17.464C69.483 14.404 71.337 12.352 74.451 12.352C77.475 12.352 79.203 14.494 79.203 16.654C79.203 17.554 78.933 17.788 78.051 17.788ZM72.111 16.276H76.719C76.575 15.07 75.675 14.188 74.505 14.188C73.191 14.188 72.399 14.998 72.111 16.276ZM82.0344 15.79H85.0044C85.8144 15.79 86.4624 16.114 86.4624 17.032C86.4624 17.95 85.8144 18.274 85.0044 18.274H82.0344C81.2244 18.274 80.5764 17.95 80.5764 17.032C80.5764 16.114 81.2244 15.79 82.0344 15.79ZM88.3745 20.92V13.666C88.3745 12.964 88.6625 12.352 89.6885 12.352C90.7145 12.352 91.0025 12.964 91.0025 13.666V20.92C91.0025 21.622 90.7145 22.234 89.6885 22.234C88.6625 22.234 88.3745 21.622 88.3745 20.92ZM88.3205 10.102C88.3205 9.346 88.9325 8.734 89.6885 8.734C90.4445 8.734 91.0565 9.346 91.0565 10.102C91.0565 10.858 90.4445 11.47 89.6885 11.47C88.9325 11.47 88.3205 10.858 88.3205 10.102ZM93.9243 19.894V14.314H93.4743C92.7363 14.314 92.4303 14.026 92.4303 13.45C92.4303 12.874 92.7363 12.586 93.4743 12.586H93.9243V10.984C93.9243 10.12 94.4463 9.67 95.2383 9.67C96.0303 9.67 96.5523 10.12 96.5523 10.984V12.586H97.3443C98.1183 12.586 98.5323 12.82 98.5323 13.45C98.5323 14.08 98.1183 14.314 97.3443 14.314H96.5523V19.57C96.5523 19.966 96.7683 20.182 97.2363 20.182H97.6143C98.1903 20.182 98.5323 20.506 98.5323 21.064C98.5323 21.82 97.8843 22.234 96.6243 22.234C94.7163 22.234 93.9243 21.442 93.9243 19.894Z" fill="black"/>
<path d="M29.9253 8.0914C29.6293 7.72073 29.2554 7.45509 28.8583 7.23761L28.826 7.2191L28.7915 7.20503C28.7721 7.19689 28.1358 6.92462 27.2141 6.65013C26.2909 6.3771 25.0859 6.09598 23.8847 6.09375C21.0004 6.09825 18.8453 7.07558 18.1348 7.44108C17.4252 7.07558 15.2693 6.09825 12.3842 6.0938C11.1838 6.09602 9.97878 6.37715 9.05557 6.65017C8.13384 6.92467 7.49689 7.19694 7.47814 7.20508L7.44293 7.21914L7.40994 7.23766C7.01427 7.45519 6.64033 7.72078 6.34433 8.09145C6.0476 8.45913 5.85275 8.95115 5.85725 9.47793V22.0563C5.85725 22.6334 6.13753 23.175 6.60964 23.5131C6.92588 23.7395 7.30054 23.8564 7.68124 23.8564C7.87083 23.8564 8.06194 23.8268 8.24553 23.7684L8.28376 23.7558L8.32049 23.7395L8.32275 23.7388C8.36773 23.7188 8.91327 23.4865 9.68585 23.263C10.4569 23.0389 11.4581 22.8273 12.3843 22.8287C13.8179 22.828 15.1075 23.1402 16.0315 23.4539C16.4931 23.6108 16.8633 23.7676 17.1143 23.883C17.2387 23.9408 17.3346 23.9881 17.3961 24.0199L17.4635 24.0547L17.4785 24.0628H17.48V24.0636L17.5519 24.1036L17.6299 24.128C17.7273 24.1583 17.8277 24.1731 17.9259 24.1731C17.9971 24.1731 18.066 24.1627 18.1349 24.148C18.2031 24.1628 18.2728 24.1731 18.3433 24.1731C18.4422 24.1731 18.5426 24.1583 18.6393 24.128L18.718 24.1036L18.7884 24.0643C18.7982 24.054 21.0635 22.8221 23.8849 22.8288C24.8418 22.8273 25.8774 23.0529 26.6583 23.2845C27.0494 23.4 27.3777 23.5161 27.6055 23.6027C27.7194 23.6449 27.8078 23.6804 27.8663 23.7048L27.9322 23.7321L27.9472 23.7388L27.9487 23.7396L27.9862 23.7559L28.0244 23.7685C28.2087 23.8269 28.3998 23.8565 28.5887 23.8565C28.9678 23.8565 29.344 23.7396 29.6595 23.5132H29.6603C30.1316 23.175 30.4127 22.6335 30.4127 22.0564V9.47793C30.4169 8.95115 30.2221 8.45913 29.9253 8.0914ZM17.357 22.3108C16.3424 21.8883 14.5454 21.2972 12.3842 21.2927C11.1912 21.2942 10.0364 21.5569 9.16491 21.8129C8.44101 22.0274 7.92022 22.2383 7.7516 22.3086L7.68115 22.3204C7.62417 22.3204 7.57022 22.3027 7.52379 22.2701C7.45334 22.2197 7.41286 22.1413 7.41286 22.0562V9.47793C7.41737 9.29075 7.45934 9.18492 7.57022 9.03847C7.67664 8.90158 7.86996 8.74622 8.13676 8.59749C8.28064 8.5383 8.83893 8.31485 9.58302 8.09807C10.4088 7.8554 11.4654 7.62826 12.3841 7.62973C13.9128 7.62973 15.2302 7.95157 16.158 8.27342C16.6226 8.43469 16.9883 8.59526 17.2341 8.71288C17.2813 8.73509 17.3188 8.75431 17.357 8.77283V22.3108ZM28.8568 22.0563C28.8568 22.1406 28.8163 22.2198 28.7458 22.2701C28.6994 22.3034 28.6454 22.3205 28.5885 22.3205L28.518 22.3086C28.3494 22.2383 27.8286 22.0274 27.1047 21.8129C26.2324 21.5569 25.0784 21.2943 23.8847 21.2928C21.7243 21.2972 19.9273 21.8884 18.9126 22.3108V8.77207C19.5511 8.45321 21.4507 7.62603 23.8847 7.62973C24.8341 7.6275 25.9282 7.87017 26.766 8.12099C27.1849 8.24605 27.5423 8.37105 27.7911 8.46429C27.9155 8.51088 28.0129 8.54938 28.0789 8.57528L28.1321 8.59749C28.3996 8.74546 28.5929 8.90158 28.7001 9.03847C28.8102 9.18497 28.8522 9.29075 28.8567 9.47793L28.8568 22.0563Z" fill="black"/>
<path d="M12.5577 12.376C12.5337 12.888 12.5217 13.38 12.5217 13.852C12.5217 14.34 12.5537 15.056 12.6177 16C12.6257 16.144 12.6417 16.436 12.6657 16.876C12.6897 17.308 12.7017 17.704 12.7017 18.064C12.7817 18.056 12.8657 18.044 12.9537 18.028C13.0497 18.012 13.1217 18.004 13.1697 18.004C13.3457 18.004 13.4857 18.048 13.5897 18.136C13.6937 18.224 13.7457 18.36 13.7457 18.544C13.7457 18.664 13.6977 18.756 13.6017 18.82C13.5057 18.884 13.3377 18.932 13.0977 18.964C12.8657 18.988 12.5257 19 12.0777 19C11.5817 19 11.2097 18.984 10.9617 18.952C10.7137 18.92 10.5417 18.86 10.4457 18.772C10.3497 18.676 10.3017 18.536 10.3017 18.352C10.3017 18.216 10.3457 18.124 10.4337 18.076C10.5217 18.028 10.6457 18.004 10.8057 18.004L11.0577 18.016L11.4537 18.04L11.3937 16.624C11.3457 15.856 11.3217 15.152 11.3217 14.512C11.3217 14.168 11.3337 13.696 11.3577 13.096L11.3817 12.436C11.1097 12.452 10.8977 12.46 10.7457 12.46C10.5697 12.46 10.4497 12.428 10.3857 12.364C10.3297 12.3 10.3017 12.168 10.3017 11.968C10.3017 11.744 10.4537 11.6 10.7577 11.536C11.0697 11.472 11.5417 11.44 12.1737 11.44C12.6617 11.44 13.0257 11.456 13.2657 11.488C13.5137 11.52 13.6377 11.592 13.6377 11.704C13.6377 11.976 13.5777 12.156 13.4577 12.244C13.3457 12.324 13.1257 12.364 12.7977 12.364L12.5577 12.376Z" fill="black"/>
<path d="M21.1687 12.004C21.1687 11.66 21.4207 11.488 21.9247 11.488C22.1407 11.488 22.5527 11.496 23.1607 11.512C23.8327 11.544 24.3407 11.56 24.6847 11.56C24.9647 11.56 25.3047 11.544 25.7047 11.512C25.9767 11.496 26.1487 11.488 26.2207 11.488C26.6607 11.504 27.0327 11.584 27.3367 11.728C27.4247 11.768 27.4967 11.816 27.5527 11.872C27.6087 11.928 27.6367 12.02 27.6367 12.148C27.6367 12.324 27.5807 12.476 27.4687 12.604C27.3567 12.724 27.2207 12.784 27.0607 12.784C26.8847 12.784 26.6287 12.76 26.2927 12.712C25.9967 12.656 25.7367 12.628 25.5127 12.628C25.2967 12.628 25.1327 12.632 25.0207 12.64C24.9967 12.904 24.9847 13.536 24.9847 14.536C24.9847 15.728 25.0207 16.936 25.0927 18.16L25.1167 18.508C25.1167 18.836 24.9287 19 24.5527 19C24.2567 19 24.0567 18.932 23.9527 18.796C23.8487 18.652 23.7967 18.436 23.7967 18.148C23.7967 17.58 23.7807 16.872 23.7487 16.024C23.7167 15.32 23.7007 14.82 23.7007 14.524C23.7007 14.324 23.7247 13.712 23.7727 12.688L22.3687 12.7C21.9207 12.7 21.6087 12.66 21.4327 12.58C21.2567 12.492 21.1687 12.3 21.1687 12.004Z" fill="black"/>
</g>
<defs>
<clipPath id="clip0_1_16">
<rect width="104" height="30" fill="white"/>
</clipPath>
</defs>
</svg>
