<svg width="403" height="372" viewBox="0 0 403 372" fill="none" xmlns="http://www.w3.org/2000/svg">
<path d="M60.1019 276.622V246.385V210.565C60.1019 201.866 61.3331 194.276 50.8616 193.679C40.3901 193.082 35.4037 204.936 17.4524 200.843C7.97828 198.682 9.74845e-06 189.073 0 177.816C-1.68379e-05 158.371 21.104 146.639 41.3872 159.394C60.1019 171.164 60.1019 149.16 60.1019 141.996V94.8721C60.1019 93.7675 60.9973 92.8721 62.1019 92.8721H130.909C144.871 93.8955 136.394 109.758 132.405 119.481C124.427 138.926 135.231 149.842 142.877 152.742C169.803 159.394 176.286 130.739 167.31 119.481C155.038 104.088 158.335 94.4072 164.318 94.4072H230.481C231.643 94.4072 232.565 95.3883 232.523 96.5496C232.218 105.113 232.633 125.245 232.633 145.066C232.633 171.675 256.567 162.976 256.567 163.488C256.567 164 292.433 153.933 295.462 181.91C297.456 200.331 278.009 212.1 256.567 205.448C239.414 200.126 236.622 206.472 236.622 212.1V276.622C236.622 277.727 235.726 278.622 234.622 278.622H160.954C160.256 278.622 159.6 278.251 159.252 277.646C150.212 261.954 158.807 254.723 163.82 242.291C169.803 227.452 163.264 215.093 153.348 212.1C140.383 208.187 117.446 215.171 126.92 242.291C134.226 263.205 133.901 278.622 121.934 278.622H62.1019C60.9973 278.622 60.1019 277.727 60.1019 276.622Z" fill="black"/>
<path d="M231.454 96.8688H288.876C295.867 96.8688 308.617 90.4976 304.356 64.9252C299.862 37.9597 321.304 38.1841 330.321 41.4542C334.981 43.1204 342.904 50.1472 337.311 64.9252C330.321 83.3977 334.815 97.8835 349.295 97.8835H399.225C400.33 97.8835 401.225 98.779 401.225 99.8835V274.108C401.225 275.221 400.339 276.119 399.226 276.11C389.669 276.024 348.791 275.688 341.306 276.128C332.817 276.627 334.291 285.89 339.309 297.599C346.799 315.076 339.059 336.4 313.843 332.053C299.362 329.556 293.37 314.077 299.362 297.599C305.354 281.121 298.364 276.128 291.872 276.128C278.684 276.128 247.833 275.962 234.684 276.128" stroke="black" stroke-width="2" stroke-linecap="round"/>
<path d="M239.179 332.549C242.341 338.041 248.866 349.925 249.665 353.521" stroke="black" stroke-width="2" stroke-linecap="round"/>
<path d="M226.695 335.545C225.031 340.039 224.199 353.421 234.185 370.997" stroke="black" stroke-width="2" stroke-linecap="round"/>
<path d="M207.721 332.549C201.229 338.541 187.947 352.522 186.749 360.511" stroke="black" stroke-width="2" stroke-linecap="round"/>
<path d="M228.693 39.4492C235.184 33.4573 248.466 19.4761 249.665 11.4868" stroke="black" stroke-width="2" stroke-linecap="round"/>
<path d="M209.718 36.4521C211.382 31.9582 212.214 18.5762 202.228 0.999783" stroke="black" stroke-width="2" stroke-linecap="round"/>
<path d="M197.236 39.4492C194.073 33.9566 187.549 22.0726 186.75 18.4774" stroke="black" stroke-width="2" stroke-linecap="round"/>
</svg>
