<svg width="392" height="336" viewBox="0 0 392 336" fill="none" xmlns="http://www.w3.org/2000/svg">
<path d="M20.54 270.768C24.5423 261.611 22.8514 253.49 20.5399 242.393C17.6505 228.523 12.8349 197.379 37.2341 177.489C56.7534 161.577 78.9695 153.412 87.6376 151.318" stroke="black" stroke-width="2" stroke-linecap="round"/>
<path d="M69.7451 270.383C71.1409 266.421 84.8635 249.194 83.1188 237.573C82.4909 234.266 82.9304 226.661 91.5943 222.693" stroke="black" stroke-width="2" stroke-linecap="round"/>
<path d="M61.9303 192.556C68.5224 183.781 86.4151 172.335 100.541 170.428C114.667 168.52 115.916 176.301 114.094 179.605C111.362 184.56 105.416 190.037 93.524 200.469C81.7425 210.803 75.3105 229.939 74.5606 239.067" stroke="black" stroke-width="2" stroke-linecap="round"/>
<path d="M295.377 161.674C286.222 155.308 263.454 144.041 245.619 149.901C244.004 150.425 240.644 152.884 240.127 158.535" stroke="black" stroke-width="2" stroke-linecap="round"/>
<path d="M276.173 216.59C258.28 200.184 247.921 187.213 250.275 170.808C251.588 161.664 258.087 157.893 264.037 162.459C271.935 168.518 278.056 176.149 286.654 179.201C288.34 179.837 293.689 181.109 301.599 181.109" stroke="black" stroke-width="2" stroke-linecap="round"/>
<path d="M341.903 253.237C341.041 250.446 339.253 241.517 340.287 234.401C341.579 225.506 340.409 191.933 322.316 182.254" stroke="black" stroke-width="2" stroke-linecap="round"/>
<path d="M339.268 164.704L227.785 158.2C227.604 158.189 227.413 158.205 227.235 158.245C210.27 162.026 217.514 169.619 223.483 173.583C223.761 173.768 224.081 173.873 224.413 173.897L249.805 175.768" stroke="black" stroke-width="2" stroke-linecap="round"/>
<path d="M338.796 183.015L301.583 181.039" stroke="black" stroke-width="2" stroke-linecap="round"/>
<ellipse cx="338.608" cy="173.83" rx="9.88809" ry="11.064" fill="black"/>
<path d="M326.062 181.167C319.308 173.501 324.479 167.399 328.382 164.991C328.693 164.799 329.055 164.716 329.42 164.73L340.53 165.148C341.647 165.19 342.513 166.14 342.452 167.257L341.698 180.962C341.636 182.089 340.654 182.942 339.53 182.845L327.335 181.797C326.848 181.755 326.385 181.534 326.062 181.167Z" fill="black"/>
<path d="M211.371 162.661L215.367 161.634C216.745 161.279 218.042 162.436 217.846 163.846L217.466 166.586C217.28 167.923 215.849 168.696 214.629 168.118L211.013 166.405C209.322 165.604 209.559 163.127 211.371 162.661Z" fill="black"/>
<path d="M91.2063 171.953L86.697 71.1836C86.6965 56.3113 90.1113 31.1072 128.248 31.5247C166.385 31.9421 187.086 31.6986 192.669 31.5247" stroke="black" stroke-width="2" stroke-linecap="round"/>
<path d="M236.475 31.5293H300.573C318.289 31.7902 333.428 38.0521 333.428 62.0562C333.428 86.0603 332.552 136.241 331.263 162.419" stroke="black" stroke-width="2" stroke-linecap="round"/>
<path d="M277.585 286.794C251.172 288.359 180.536 292.53 137.911 294.008C119.873 294.008 95.9728 292.13 93.1384 265.829L91.2058 202.949" stroke="black" stroke-width="2" stroke-linecap="round"/>
<path d="M227.897 19.6943C227.897 25.4876 222.016 30.5213 214.3 30.5213C206.584 30.5213 200.703 25.4876 200.703 19.6943C200.703 13.9009 206.584 8.86719 214.3 8.86719C222.016 8.86719 227.897 13.9009 227.897 19.6943Z" stroke="black" stroke-width="2"/>
<path d="M194.328 26.1521C196.639 31.5682 193.366 35.526 185.984 36.828C182.454 37.4507 177.511 37.505 168.011 40.213C156.136 43.598 153.89 53.2325 153.569 61.5649C153.312 68.2309 158.062 70.4182 166.406 70.6786C190.691 70.5918 242.705 71.1993 256.591 71.1993C271.033 71.1993 273.133 66.7727 273.6 63.9084C275.911 49.7433 269.749 44.0646 264.293 42.0357C261.726 41.081 254.216 38.7028 244.716 36.828C235.216 34.9533 233.505 32.4013 234.446 28.7559C236.757 19.7985 235.409 12.525 234.446 10.0079C233.376 6.53607 227.128 -0.0951843 210.696 1.15468C190.156 2.71702 191.44 19.3819 194.328 26.1521Z" stroke="black" stroke-width="2" stroke-linecap="round"/>
<path d="M306.779 160.508L308.002 63.9842C308.002 61.9005 306.545 58.2539 300.607 58.2539C294.498 58.2539 280.779 58.4276 274.563 58.2539" stroke="black" stroke-width="2" stroke-linecap="round"/>
<path d="M152.061 58.2536H122.48C119.265 57.9931 113.092 59.5039 114.12 67.6305C115.149 75.7571 120.122 201.772 122.48 263.764C122.373 266.889 124.088 273.036 131.804 272.62C137.675 272.303 229.029 268.134 283.706 266.188" stroke="black" stroke-width="2" stroke-linecap="round"/>
<path d="M315.725 161.655L317.419 65.7778C317.419 62.907 315.876 58.7312 307.13 59.7751" stroke="black" stroke-width="2" stroke-linecap="round"/>
<path d="M116.773 58.9902C113.557 58.9902 106.162 58.9902 106.483 65.7757C106.791 72.297 109.698 139.076 110.663 170.046" stroke="black" stroke-width="2" stroke-linecap="round"/>
<path d="M110.663 185.047L113.557 266.475C113.878 269.345 115.165 273.521 130.599 272.477" stroke="black" stroke-width="2" stroke-linecap="round"/>
<path d="M147.91 103.248H208.18" stroke="black" stroke-width="2" stroke-linecap="round"/>
<path d="M148.312 120.568L278.432 120.046" stroke="black" stroke-width="2" stroke-linecap="round"/>
<path d="M148.635 138.057L250.734 137.274" stroke="black" stroke-width="2" stroke-linecap="round"/>
<path d="M149.615 165.213L199.844 163.371" stroke="black" stroke-width="2" stroke-linecap="round"/>
<path d="M319.492 163.562C317.138 167.123 311.958 171.956 317.608 181.112" stroke="black" stroke-width="2" stroke-linecap="round"/>
<path d="M244.625 205.986C241.486 209.014 239.728 217.663 257.809 228.04C266.755 232.746 285.307 247.04 287.944 266.574" stroke="black" stroke-width="2" stroke-linecap="round"/>
<path d="M239.916 175.387C238.234 177.943 237.496 182.862 242.742 187.574C245.326 189.896 249.363 192.167 255.455 194.081" stroke="black" stroke-width="2" stroke-linecap="round"/>
<path d="M242.741 187.572C239.375 191.517 236.306 199.607 244.625 205.98C246.779 207.631 253.935 210.692 257.809 212.01" stroke="black" stroke-width="2" stroke-linecap="round"/>
<path d="M308.128 333.345C298.083 314.396 284.02 273.37 308.128 260.856C338.263 245.214 377.345 280.695 391 311.216" stroke="black" stroke-width="2" stroke-linecap="round"/>
<path d="M1 318.459C3.35431 300.655 19.7403 264.317 47.6153 268.895C75.4903 273.474 83.0868 314.296 83.4007 334.135" stroke="black" stroke-width="2" stroke-linecap="round"/>
</svg>
