<svg width="589" height="400" viewBox="0 0 589 400" fill="none" xmlns="http://www.w3.org/2000/svg">
<path d="M237.864 355.428C248.868 321.636 266.954 264.36 272.102 240.228C272.124 240.127 272.185 240.045 272.272 239.991C294.706 226.037 318.971 218.447 327.133 216.932C327.233 216.913 327.329 216.938 327.412 216.996C348.199 231.528 361.059 240.41 369.009 247.971C389.224 267.2 393.072 304.072 392.719 328.072C392.719 328.208 392.643 328.33 392.525 328.395L384.191 333C383.986 333.113 383.731 333.016 383.648 332.798C376.845 314.513 364.158 300.082 355.856 273.858C355.863 274.07 355.681 274.257 355.456 274.251C332.9 273.675 331.995 272.376 311.641 266.156C299.495 304.898 264.809 343.127 247.603 359.569C247.494 359.673 247.341 359.697 247.202 359.64L238.083 355.89C237.899 355.815 237.802 355.617 237.864 355.428Z" fill="black"/>
<path d="M299.192 131.586C301.092 128.737 321.744 121.143 314.088 94.2922C320.758 91.319 321.865 84.2261 315.734 84.2288C309.059 83.9283 307.114 78.6337 306.708 75.1743C306.446 70.5122 304.634 66.3249 303.901 65.6123" stroke="black" stroke-width="2" stroke-linecap="round"/>
<path d="M304.353 87.6202C305.233 87.2278 305.469 85.8395 304.881 84.5193C304.292 83.1991 303.101 82.447 302.221 82.8393C301.341 83.2317 301.105 84.62 301.693 85.9403C302.282 87.2605 303.472 88.0126 304.353 87.6202Z" fill="black"/>
<path d="M296.571 81.36C297.134 79.6677 299.2 76.6208 302.962 77.9701" stroke="black" stroke-width="2" stroke-linecap="round"/>
<path d="M299.649 107.854C303.122 110.049 305.764 109.91 309.173 105.896" stroke="black" stroke-width="2" stroke-linecap="round"/>
<path d="M272.906 93.5732C272.911 94.8249 273.597 97.3559 276.301 97.4665" stroke="black" stroke-width="2" stroke-linecap="round"/>
<path d="M244.671 93.6848C248.584 108.992 261.548 115.907 271.161 121.386C275.859 115.132 282.413 102.386 278.084 103.327C273.534 104.316 263.994 95.0519 266.42 89.76C269.267 83.5511 276.324 87.7186 279.266 91.9864L280.042 83.6871C276.861 79.5948 272.741 71.7449 281.709 73.0831C290.677 74.4214 300.247 68.5889 303.91 65.5056C309.458 55.7817 315.957 36.0634 297.568 34.9806C282.275 34.0799 270.101 49.7107 263.768 61.6378C256.36 62.9323 239.334 72.8138 244.671 93.6848Z" fill="black"/>
<path d="M271.185 120.229C275.823 122.451 278.679 124.753 281.338 131.021" stroke="black" stroke-width="2" stroke-linecap="round"/>
<path d="M275.744 176.067C277.181 186.192 278.076 213.126 270.349 240.713C270.252 241.062 270.647 241.349 270.944 241.141C279.211 235.351 300.81 223.216 328.601 216.036C328.785 215.988 328.908 215.82 328.886 215.63C327.079 200.343 326.106 168.206 334.93 159.801C334.978 159.755 335.034 159.725 335.099 159.71C353.295 155.51 391.906 142.127 403.165 121.223C403.181 121.192 403.192 121.16 403.2 121.125C404.009 117.346 404.563 109.628 400.465 108.299C400.385 108.273 400.297 108.278 400.218 108.31C373.343 119.177 343.389 128.179 304.89 135.006" stroke="black" stroke-width="2" stroke-linecap="round"/>
<path d="M275.744 188.982C257.358 209.039 240.25 216.678 227.208 222.376C218.096 227.021 198.338 230.353 207.178 215.953C245.164 168.545 253.521 160.302 262.448 152.135C267.575 147.445 269.856 144.538 282.771 141.119" stroke="black" stroke-width="2" stroke-linecap="round"/>
<path d="M222.562 369.799C221.802 364.86 236.554 357.643 239.087 356.313L246.874 359.352C246.266 363.151 244.341 365.367 243.455 366L222.562 369.799Z" stroke="black" stroke-width="2"/>
<path d="M387.804 339.41C384.765 338.802 384.639 334.472 384.955 332.383L391.792 328.964C393.881 329.534 399.465 331.015 405.087 332.383C410.709 333.75 409.961 335.612 408.886 336.371L387.804 339.41Z" stroke="black" stroke-width="2"/>
<path d="M348.345 376.258C348.345 389.371 337.716 400 324.604 400C311.492 400 300.862 389.371 300.862 376.258C300.862 363.146 311.492 352.517 324.604 352.517C337.716 352.517 348.345 363.146 348.345 376.258Z" fill="black"/>
<path d="M185.715 379.106L463.017 328.204" stroke="black" stroke-width="2" stroke-linecap="round"/>
<path d="M429.209 59.8281H413.255C411.681 59.8281 410.406 61.1037 410.406 62.6771V74.453C410.406 76.0264 411.681 77.302 413.255 77.302H429.209C430.782 77.302 432.058 76.0264 432.058 74.453V62.6771C432.058 61.1037 430.782 59.8281 429.209 59.8281Z" stroke="black" stroke-width="2"/>
<path d="M456.179 55.2715H445.543C443.97 55.2715 442.694 56.547 442.694 58.1205V73.3151C442.694 74.8886 443.97 76.1641 445.543 76.1641H456.179C457.753 76.1641 459.028 74.8886 459.028 73.3151V58.1205C459.028 56.547 457.753 55.2715 456.179 55.2715Z" stroke="black" stroke-width="2"/>
<path d="M483.15 45.7754H472.893C471.32 45.7754 470.044 47.0509 470.044 48.6244V73.3157C470.044 74.8891 471.32 76.1647 472.893 76.1647H483.15C484.723 76.1647 485.999 74.8891 485.999 73.3157V48.6244C485.999 47.0509 484.723 45.7754 483.15 45.7754Z" stroke="black" stroke-width="2"/>
<path d="M510.88 36.0889H500.244C498.146 36.0889 496.445 37.7896 496.445 39.8875V73.3157C496.445 75.4137 498.146 77.1144 500.244 77.1144H510.88C512.978 77.1144 514.679 75.4137 514.679 73.3157V39.8875C514.679 37.7896 512.978 36.0889 510.88 36.0889Z" fill="black"/>
<path d="M538.99 53.751H528.734C527.16 53.751 525.885 55.0265 525.885 56.6V73.3141C525.885 74.8875 527.16 76.1631 528.734 76.1631H538.99C540.564 76.1631 541.839 74.8875 541.839 73.3141V56.6C541.839 55.0265 540.564 53.751 538.99 53.751Z" stroke="black" stroke-width="2"/>
<path d="M567.48 63.2471H556.844C555.27 63.2471 553.995 64.5226 553.995 66.0961V73.3135C553.995 74.887 555.27 76.1625 556.844 76.1625H567.48C569.053 76.1625 570.329 74.887 570.329 73.3135V66.0961C570.329 64.5226 569.053 63.2471 567.48 63.2471Z" stroke="black" stroke-width="2"/>
<path d="M505.756 30.8686C505.452 31.2181 504.912 31.2181 504.608 30.8686L501.334 27.0903C500.909 26.5983 501.258 25.833 501.908 25.833H508.457C509.106 25.833 509.456 26.5983 509.03 27.0903L505.756 30.8686Z" fill="black"/>
<path fill-rule="evenodd" clip-rule="evenodd" d="M487.328 0H524.175C526.273 0 527.974 1.70072 527.974 3.79866V24.3114C527.974 26.4094 526.273 28.1101 524.175 28.1101H487.328C485.23 28.1101 483.53 26.4094 483.53 24.3114V3.79866C483.53 1.70072 485.23 0 487.328 0ZM497.205 12.9147H521.516C522.355 12.9147 523.036 13.5949 523.036 14.4341C523.036 15.2733 522.355 15.9536 521.516 15.9536H497.205C496.366 15.9536 495.685 15.2733 495.685 14.4341C495.685 13.5949 496.366 12.9147 497.205 12.9147ZM489.987 14.2968C489.91 14.2968 489.848 14.3593 489.848 14.4364C489.848 14.5135 489.91 14.576 489.987 14.576C490.065 14.576 490.127 14.5135 490.127 14.4364C490.127 14.3593 490.065 14.2968 489.987 14.2968ZM487.848 14.4364C487.848 13.2547 488.806 12.2968 489.987 12.2968C491.169 12.2968 492.127 13.2547 492.127 14.4364C492.127 15.618 491.169 16.576 489.987 16.576C488.806 16.576 487.848 15.618 487.848 14.4364ZM497.205 20.1337H507.081C507.921 20.1337 508.601 20.814 508.601 21.6532C508.601 22.4923 507.921 23.1726 507.081 23.1726H497.205C496.366 23.1726 495.685 22.4923 495.685 21.6532C495.685 20.814 496.366 20.1337 497.205 20.1337ZM499.864 5.3165H489.987C489.148 5.3165 488.468 5.99679 488.468 6.83597C488.468 7.67514 489.148 8.35543 489.987 8.35543H499.864C500.703 8.35543 501.383 7.67514 501.383 6.83597C501.383 5.99679 500.703 5.3165 499.864 5.3165ZM489.987 20.1337C490.827 20.1337 491.507 20.814 491.507 21.6532C491.507 22.4923 490.827 23.1726 489.987 23.1726C489.148 23.1726 488.468 22.4923 488.468 21.6532C488.468 20.814 489.148 20.1337 489.987 20.1337Z" fill="black"/>
<path d="M75.5388 294.383C81.5087 291.313 88.3186 290.28 94.9305 291.441C101.542 292.602 107.593 295.893 112.16 300.813C116.727 305.733 119.56 312.012 120.226 318.691C120.892 325.371 119.356 332.086 115.852 337.811C112.347 343.536 107.066 347.959 100.814 350.403C94.5621 352.848 87.6823 353.181 81.2235 351.351C74.7646 349.522 69.0814 345.63 65.04 340.27C60.999 334.91 58.8216 328.375 58.8399 321.662L89.609 321.747L75.5388 294.383Z" stroke="black" stroke-width="2"/>
<path d="M53.1417 318.327C53.1417 312.77 54.6843 307.323 57.5979 302.591C60.5115 297.86 64.6816 294.03 69.6434 291.529L83.1511 318.327H53.1417Z" fill="black"/>
<path d="M434.839 107.923C435.272 108.931 435.431 111.16 432.943 112.512C432.761 112.612 432.559 112.707 432.347 112.797C429.235 114.096 428.461 111.96 428.461 110.729V109.475" stroke="black" stroke-width="2" stroke-linecap="round"/>
<path d="M434.436 104.82C435.272 105.324 436.415 106.604 434.839 107.922C434.721 108.02 434.588 108.119 434.436 108.217C432.616 109.416 430.029 109.573 428.461 109.474C428.172 109.456 427.921 109.429 427.712 109.399C426.865 109.162 425.501 108.243 426.816 106.459" stroke="black" stroke-width="2" stroke-linecap="round"/>
<path d="M433.84 101.128C434.687 101.325 436.142 102.103 435.184 103.639C434.227 105.175 429.407 106.149 427.116 106.445C427.017 106.455 426.919 106.46 426.816 106.459C425.912 106.456 425.023 106.018 425.023 104.82C425.023 103.129 427.215 102.555 427.712 102.457" stroke="black" stroke-width="2" stroke-linecap="round"/>
<path d="M428.829 96.1034C429.676 96.4479 430.193 97.6981 428.161 98.7613C426.128 99.8246 426.618 101.272 427.116 101.863C427.914 102.552 430.493 103.074 434.436 99.6475C438.383 96.2212 432.195 94.0844 428.461 93.4443" stroke="black" stroke-width="2" stroke-linecap="round"/>
<path d="M420.092 99.6501C421.786 98.3209 425.084 96.46 424.726 99.6501C424.366 102.84 422.086 104.229 420.989 104.524" stroke="black" stroke-width="2" stroke-linecap="round"/>
<path d="M420.092 112.443C421.083 111.59 422.774 108.8 421.581 104.466" stroke="black" stroke-width="2" stroke-linecap="round"/>
<path d="M420.818 98.615L418.952 88.5098" stroke="black" stroke-width="2" stroke-linecap="round"/>
<path d="M427.499 86.7998L428.772 97.1295" stroke="black" stroke-width="2" stroke-linecap="round"/>
<path d="M430.424 113.165C430.424 115.986 431.777 119.697 428.772 120.588C425.106 121.676 424.719 118.361 423.971 114.946L422.018 104.702" stroke="black" stroke-width="2" stroke-linecap="round"/>
<path d="M419.712 94.7783C417.623 95.1582 412.723 97.2854 409.836 102.756C406.949 108.226 404.202 109.973 403.188 110.163" stroke="black" stroke-width="2" stroke-linecap="round"/>
<path d="M403.758 119.659C409.076 120.228 420.054 120 423.701 116.05" stroke="black" stroke-width="2" stroke-linecap="round"/>
<path d="M419.902 88.3197C429.972 88.3197 438.136 80.1562 438.136 70.0861C438.136 60.016 429.972 51.8525 419.902 51.8525C409.832 51.8525 401.669 60.016 401.669 70.0861C401.669 80.1562 409.832 88.3197 419.902 88.3197Z" stroke="black" stroke-width="2"/>
<path d="M587.97 105.432C580.684 106.927 584.099 116.959 578.762 119.628C572.388 122.815 570.192 104.874 571.021 97.2589C571.26 93.9199 575.146 92.435 575.67 97.2589C576.228 102.383 569.869 122.254 562.584 114.586L557.721 108.957C556.369 107.291 553.706 104.977 551.454 108.957C549.201 112.937 545.611 111.622 544.099 110.466L539.347 107.009" stroke="black" stroke-width="2" stroke-linecap="round"/>
<path d="M542.755 91.682L504.928 85.2744C504.555 85.211 504.327 85.6767 504.612 85.9312L522.132 101.71C522.162 101.736 522.189 101.756 522.227 101.77C523.776 102.38 529.725 100.036 532.893 98.6184C533.106 98.5226 533.353 98.6396 533.417 98.8645C534.147 101.419 535.028 103.781 535.48 104.907C535.549 105.073 535.731 105.165 535.852 105.033C536.699 104.098 536.817 99.3416 536.756 96.6115C536.753 96.4167 536.893 96.2514 537.087 96.2138C539.416 95.7591 542.565 93.7135 543.906 92.7016" stroke="black" stroke-width="2" stroke-linecap="round"/>
<path d="M533.27 98.3482C529.235 96.491 519.028 91.8399 510.478 88.0918" stroke="black" stroke-width="2" stroke-linecap="round"/>
<path d="M535.549 105.187L527.951 100.629" stroke="black" stroke-width="2" stroke-linecap="round"/>
<path d="M534.029 94.5497L523.773 91.5107" stroke="black" stroke-width="2" stroke-linecap="round"/>
<path d="M277.54 142.793C274.818 139.628 271.006 132.954 277.54 131.587C285.707 129.878 304.13 130.257 304.89 134.816" stroke="black" stroke-width="2" stroke-linecap="round"/>
<path d="M190.053 242.719C191.53 243.518 195.984 243.822 201.981 238.649C207.979 233.477 209.29 228.865 209.196 227.206" stroke="black" stroke-width="2" stroke-linecap="round"/>
<path d="M182.631 242.594C182.463 244.021 183.412 246.21 188.546 243.545L190.052 242.719L192.672 241.283" stroke="black" stroke-width="2" stroke-linecap="round"/>
<path d="M181.295 238.17C180.088 238.878 178.145 240.708 180.022 242.36C180.588 242.858 181.525 242.872 182.631 242.592C185.193 241.945 188.667 239.725 190.578 238.299" stroke="black" stroke-width="2" stroke-linecap="round"/>
<path d="M203.679 220.202C200.848 219.162 194.999 217.133 191.112 218.483C190.136 218.849 187.925 219.354 186.884 218.442C185.584 217.303 183.119 220.226 186.471 222.181C189.823 224.137 192.006 222.063 191.562 225.168C191.207 227.652 184.329 231.682 180.935 233.386C179.715 233.939 177.701 235.54 179.399 237.528C179.819 238.02 180.488 238.201 181.295 238.168C183.749 238.067 187.49 235.987 189.488 234.639" stroke="black" stroke-width="2" stroke-linecap="round"/>
<path d="M104.174 83.5134C114.186 93.7603 132.786 98.2758 142.59 99.5085C143.282 99.5958 143.526 100.497 142.964 100.912L117.169 119.938C117.085 120 116.988 120.044 116.886 120.067C97.7874 124.33 79.9812 105.317 72.9157 94.5159C72.6464 94.1045 72.8469 93.5582 73.3134 93.4017L103.379 83.319C103.659 83.2247 103.967 83.3019 104.174 83.5134Z" stroke="black" stroke-width="2" stroke-linecap="round"/>
<path d="M89.404 99.119C92.4429 98.4877 99.0526 96.5223 101.18 93.709" stroke="black" stroke-width="2" stroke-linecap="round"/>
<path d="M97.951 105.954C99.8504 106.017 104.219 105.081 106.498 100.826" stroke="black" stroke-width="2" stroke-linecap="round"/>
<path d="M107.258 110.514C110.107 110.134 116.223 107.969 117.894 102.347" stroke="black" stroke-width="2" stroke-linecap="round"/>
<path d="M40.1011 162.906C30.0896 173.153 11.4898 177.668 1.68585 178.901C0.992975 178.988 0.749116 179.889 1.31132 180.304L27.1065 199.331C27.1904 199.393 27.2873 199.437 27.3891 199.46C46.4882 203.722 64.2944 184.71 71.3599 173.908C71.6292 173.497 71.4287 172.951 70.9622 172.794L40.8966 162.712C40.6162 162.617 40.3082 162.694 40.1011 162.906Z" stroke="black" stroke-width="2" stroke-linecap="round"/>
<path d="M54.8714 178.511C51.8325 177.879 45.2228 175.914 43.0956 173.101" stroke="black" stroke-width="2" stroke-linecap="round"/>
<path d="M46.3245 185.347C44.4252 185.41 40.0567 184.473 37.7775 180.219" stroke="black" stroke-width="2" stroke-linecap="round"/>
<path d="M37.0175 189.906C34.1685 189.527 28.0526 187.361 26.3812 181.739" stroke="black" stroke-width="2" stroke-linecap="round"/>
</svg>
