<svg width="128" height="128" viewBox="0 0 128 128" fill="none" xmlns="http://www.w3.org/2000/svg">
<path d="M108.895 37.9971C107.781 36.6017 106.373 35.6016 104.878 34.7829L104.757 34.7132L104.627 34.6602C104.554 34.6296 102.158 33.6045 98.6883 32.5712C95.2127 31.5433 90.6763 30.4849 86.154 30.4766C75.2956 30.4935 67.1821 34.1728 64.5075 35.5489C61.8359 34.1728 53.7195 30.4935 42.8582 30.4767C38.3388 30.4851 33.8024 31.5435 30.3268 32.5713C26.8567 33.6047 24.4588 34.6297 24.3882 34.6604L24.2557 34.7133L24.1314 34.783C22.6419 35.602 21.2341 36.6019 20.1197 37.9973C19.0027 39.3815 18.2691 41.2338 18.2861 43.217V90.571C18.2861 92.7437 19.3412 94.7824 21.1186 96.0554C22.3091 96.9077 23.7196 97.3478 25.1528 97.3478C25.8666 97.3478 26.5861 97.2364 27.2772 97.0164L27.4211 96.969L27.5594 96.9077L27.5679 96.9048C27.7373 96.8296 29.7911 95.9551 32.6996 95.1138C35.6025 94.2699 39.3715 93.4733 42.8586 93.4788C48.2555 93.476 53.1105 94.6514 56.589 95.8324C58.3269 96.423 59.7206 97.0134 60.6656 97.448C61.1339 97.6653 61.495 97.8436 61.7263 97.9634L61.9802 98.0942L62.0367 98.1249H62.0423V98.1277L62.3131 98.2782L62.6065 98.3702C62.9732 98.4844 63.3513 98.5401 63.7209 98.5401C63.9888 98.5401 64.2485 98.501 64.5079 98.4454C64.7647 98.5012 65.027 98.5401 65.2922 98.5401C65.6647 98.5401 66.0426 98.4843 66.4066 98.3702L66.7029 98.2782L66.9681 98.1306C67.0048 98.0915 75.5332 93.454 86.1547 93.479C89.7573 93.4735 93.6562 94.3229 96.5957 95.1948C98.0683 95.6294 99.304 96.0667 100.162 96.3925C100.59 96.5514 100.923 96.6851 101.143 96.7769L101.392 96.8799L101.448 96.905L101.454 96.9079L101.595 96.9692L101.739 97.0166C102.433 97.2366 103.152 97.348 103.863 97.348C105.291 97.348 106.707 96.9079 107.895 96.0556H107.897C109.672 94.7826 110.73 92.7438 110.73 90.5712V43.217C110.746 41.2338 110.012 39.3815 108.895 37.9971ZM61.5792 91.529C57.7594 89.9385 50.9943 87.7131 42.858 87.6963C38.3668 87.7018 34.0194 88.6907 30.7384 89.6544C28.0132 90.4621 26.0525 91.2559 25.4177 91.5206L25.1525 91.5652C24.938 91.5652 24.7349 91.4983 24.5601 91.3757C24.2948 91.1862 24.1425 90.891 24.1425 90.5706V43.217C24.1594 42.5123 24.3174 42.1139 24.7349 41.5626C25.1355 41.0472 25.8633 40.4623 26.8677 39.9024C27.4094 39.6796 29.5112 38.8383 32.3125 38.0223C35.4214 37.1087 39.3992 36.2535 42.8578 36.2591C48.613 36.2591 53.5726 37.4707 57.0652 38.6824C58.8144 39.2895 60.1911 39.894 61.1164 40.3368C61.2941 40.4204 61.4353 40.4928 61.5792 40.5625V91.529ZM104.872 90.5708C104.872 90.8883 104.72 91.1863 104.455 91.3758C104.28 91.5012 104.077 91.5653 103.862 91.5653L103.597 91.5208C102.962 91.2562 101.002 90.4622 98.2765 89.6545C94.9926 88.6908 90.6482 87.702 86.154 87.6965C78.0207 87.7133 71.2555 89.9387 67.4357 91.5292V40.5597C69.8394 39.3592 76.991 36.2452 86.154 36.2591C89.7284 36.2507 93.8472 37.1643 97.0013 38.1085C98.5782 38.5793 99.924 39.0499 100.861 39.4009C101.329 39.5764 101.696 39.7213 101.944 39.8188L102.144 39.9024C103.151 40.4595 103.879 41.0472 104.283 41.5626C104.697 42.1141 104.855 42.5123 104.872 43.217L104.872 90.5708Z" fill="black"/>
<path d="M44.3591 53.5079C44.2791 55.2146 44.2391 56.8546 44.2391 58.4279C44.2391 60.0546 44.3457 62.4412 44.5591 65.5879C44.5857 66.0679 44.6391 67.0412 44.7191 68.5079C44.7991 69.9479 44.8391 71.2679 44.8391 72.4679C45.1057 72.4412 45.3857 72.4012 45.6791 72.3479C45.9991 72.2946 46.2391 72.2679 46.3991 72.2679C46.9857 72.2679 47.4524 72.4146 47.7991 72.7079C48.1457 73.0012 48.3191 73.4546 48.3191 74.0679C48.3191 74.4679 48.1591 74.7746 47.8391 74.9879C47.5191 75.2012 46.9591 75.3612 46.1591 75.4679C45.3857 75.5479 44.2524 75.5879 42.7591 75.5879C41.1057 75.5879 39.8657 75.5346 39.0391 75.4279C38.2124 75.3212 37.6391 75.1212 37.3191 74.8279C36.9991 74.5079 36.8391 74.0412 36.8391 73.4279C36.8391 72.9746 36.9857 72.6679 37.2791 72.5079C37.5724 72.3479 37.9857 72.2679 38.5191 72.2679L39.3591 72.3079L40.6791 72.3879L40.4791 67.6679C40.3191 65.1079 40.2391 62.7612 40.2391 60.6279C40.2391 59.4812 40.2791 57.9079 40.3591 55.9079L40.4391 53.7079C39.5324 53.7612 38.8257 53.7879 38.3191 53.7879C37.7324 53.7879 37.3324 53.6812 37.1191 53.4679C36.9324 53.2546 36.8391 52.8146 36.8391 52.1479C36.8391 51.4012 37.3457 50.9212 38.3591 50.7079C39.3991 50.4946 40.9724 50.3879 43.0791 50.3879C44.7057 50.3879 45.9191 50.4412 46.7191 50.5479C47.5457 50.6546 47.9591 50.8946 47.9591 51.2679C47.9591 52.1746 47.7591 52.7746 47.3591 53.0679C46.9857 53.3346 46.2524 53.4679 45.1591 53.4679L44.3591 53.5079Z" fill="black"/>
<path d="M75.9275 52.68C75.9275 51.5333 76.7675 50.96 78.4475 50.96C79.1675 50.96 80.5408 50.9867 82.5675 51.04C84.8075 51.1467 86.5008 51.2 87.6475 51.2C88.5808 51.2 89.7141 51.1467 91.0475 51.04C91.9541 50.9867 92.5275 50.96 92.7675 50.96C94.2341 51.0133 95.4741 51.28 96.4875 51.76C96.7808 51.8933 97.0208 52.0533 97.2075 52.24C97.3941 52.4267 97.4875 52.7333 97.4875 53.16C97.4875 53.7467 97.3008 54.2533 96.9275 54.68C96.5541 55.08 96.1008 55.28 95.5675 55.28C94.9808 55.28 94.1275 55.2 93.0075 55.04C92.0208 54.8533 91.1541 54.76 90.4075 54.76C89.6875 54.76 89.1408 54.7733 88.7675 54.8C88.6875 55.68 88.6475 57.7867 88.6475 61.12C88.6475 65.0933 88.7675 69.12 89.0075 73.2L89.0875 74.36C89.0875 75.4533 88.4608 76 87.2075 76C86.2208 76 85.5541 75.7733 85.2075 75.32C84.8608 74.84 84.6875 74.12 84.6875 73.16C84.6875 71.2667 84.6341 68.9067 84.5275 66.08C84.4208 63.7333 84.3675 62.0667 84.3675 61.08C84.3675 60.4133 84.4475 58.3733 84.6075 54.96L79.9275 55C78.4341 55 77.3941 54.8667 76.8075 54.6C76.2208 54.3067 75.9275 53.6667 75.9275 52.68Z" fill="black"/>
</svg>
